<svg xmlns="http://www.w3.org/2000/svg" viewBox="0 0 100 130">
  <!-- Pin com ponta assimétrica à direita -->
  <path d="M50 5 
           C20 5 5 25 5 50 
           C5 75 25 90 40 105
           L55 95
           C75 75 95 60 95 45
           C95 20 75 5 50 5 Z" 
        fill="#2563eb"/>
  
  <!-- S fluido e curvilíneo -->
  <path d="M70 25
           C70 20 60 18 50 22
           C35 28 25 35 25 45
           C25 55 40 55 55 55
           C70 55 80 60 80 70
           C80 80 65 90 50 95
           C42 98 48 105 48 105" 
        fill="none" 
        stroke="white" 
        stroke-width="12" 
        stroke-linecap="round"
        stroke-linejoin="round"/>
  
  <!-- Swoosh elegante -->
  <path d="M8 115 Q45 100 90 120" 
        fill="none" 
        stroke="#2563eb" 
        stroke-width="5" 
        stroke-linecap="round"/>
</svg>
